<mxfile host="app.diagrams.net">
  <diagram id="flow1" name="Page-1">
    <mxGraphModel dx="800" dy="600" grid="1" gridSize="10" guides="1" tooltips="1" connect="1" arrows="1" fold="1" page="1" pageScale="1" pageWidth="827" pageHeight="1169" math="0" shadow="0">
      <root>
        <mxCell id="0"/>
        <mxCell id="1" parent="0"/>

        <!-- Slot Indexer -->
        <mxCell id="2" value="✓ Slot Indexer" style="rounded=1;whiteSpace=wrap;html=1;fillColor=#dae8fc;strokeColor=#6c8ebf;" vertex="1" parent="1">
          <mxGeometry x="60" y="120" width="140" height="60" as="geometry"/>
        </mxCell>

        <!-- Executing Plan -->
        <mxCell id="3" value="✓ Executing Plan" style="rounded=1;whiteSpace=wrap;html=1;fillColor=#ffe6cc;strokeColor=#d79b00;" vertex="1" parent="1">
          <mxGeometry x="260" y="120" width="160" height="60" as="geometry"/>
        </mxCell>

        <!-- Marker Synthesizer -->
        <mxCell id="4" value="✎ Marker Synthesizer" style="rounded=1;whiteSpace=wrap;html=1;fillColor=#e1d5e7;strokeColor=#9673a6;" vertex="1" parent="1">
          <mxGeometry x="480" y="120" width="180" height="60" as="geometry"/>
        </mxCell>

        <!-- Executor -->
        <mxCell id="5" value="⚙ Executor" style="rounded=1;whiteSpace=wrap;html=1;fillColor=#d5e8d4;strokeColor=#82b366;" vertex="1" parent="1">
          <mxGeometry x="720" y="120" width="120" height="60" as="geometry"/>
        </mxCell>

        <!-- Override Module -->
        <mxCell id="6" value="◉ Override Module" style="rounded=1;whiteSpace=wrap;html=1;fillColor=#f8cecc;strokeColor=#b85450;" vertex="1" parent="1">
          <mxGeometry x="920" y="120" width="180" height="60" as="geometry"/>
        </mxCell>

        <!-- Connectors -->
        <mxCell id="7" style="endArrow=block;html=1;strokeColor=#6c8ebf;" edge="1" parent="1" source="2" target="3">
          <mxGeometry relative="1" as="geometry"/>
        </mxCell>

        <mxCell id="8" style="endArrow=block;html=1;strokeColor=#d79b00;" edge="1" parent="1" source="3" target="4">
          <mxGeometry relative="1" as="geometry"/>
        </mxCell>

        <mxCell id="9" style="endArrow=block;html=1;strokeColor=#9673a6;" edge="1" parent="1" source="4" target="5">
          <mxGeometry relative="1" as="geometry"/>
        </mxCell>

        <mxCell id="10" style="endArrow=block;html=1;strokeColor=#82b366;" edge="1" parent="1" source="5" target="6">
          <mxGeometry relative="1" as="geometry"/>
        </mxCell>

      </root>
    </mxGraphModel>
  </diagram>
</mxfile>